<?xml version="1.0" encoding="UTF-8" standalone="no"?>
<!-- Created with Inkscape (http://www.inkscape.org/) -->

<svg
   xmlns:dc="http://purl.org/dc/elements/1.1/"
   xmlns:cc="http://creativecommons.org/ns#"
   xmlns:rdf="http://www.w3.org/1999/02/22-rdf-syntax-ns#"
   xmlns:svg="http://www.w3.org/2000/svg"
   xmlns="http://www.w3.org/2000/svg"
   xmlns:xlink="http://www.w3.org/1999/xlink"
   xmlns:sodipodi="http://sodipodi.sourceforge.net/DTD/sodipodi-0.dtd"
   xmlns:inkscape="http://www.inkscape.org/namespaces/inkscape"
   width="32px"
   height="32px"
   id="svg2985"
   version="1.1"
   inkscape:version="0.48.0 r9654"
   sodipodi:docname="Point.svg">
  <defs
     id="defs2987">
    <linearGradient
       id="linearGradient3762">
      <stop
         style="stop-color:#ff000b;stop-opacity:1;"
         offset="0"
         id="stop3764" />
      <stop
         id="stop3770"
         offset="0.375"
         style="stop-color:#ffec85;stop-opacity:0.70588235;" />
      <stop
         style="stop-color:#ffffff;stop-opacity:0.4159292;"
         offset="1"
         id="stop3766" />
    </linearGradient>
    <filter
       id="filter4300"
       inkscape:label="Drop shadow"
       width="1.5"
       height="1.5"
       x="-.25"
       y="-.25">
      <feGaussianBlur
         id="feGaussianBlur4302"
         in="SourceAlpha"
         stdDeviation="0.8"
         result="blur" />
      <feColorMatrix
         id="feColorMatrix4304"
         result="bluralpha"
         type="matrix"
         values="1 0 0 0 0 0 1 0 0 0 0 0 1 0 0 0 0 0 0.5 0 " />
      <feOffset
         id="feOffset4306"
         in="bluralpha"
         dx="1.9"
         dy="0.9"
         result="offsetBlur" />
      <feMerge
         id="feMerge4308">
        <feMergeNode
           id="feMergeNode4310"
           in="offsetBlur" />
        <feMergeNode
           id="feMergeNode4312"
           in="SourceGraphic" />
      </feMerge>
    </filter>
    <radialGradient
       inkscape:collect="always"
       xlink:href="#linearGradient3762"
       id="radialGradient3768"
       cx="15.806673"
       cy="15.478901"
       fx="15.806673"
       fy="15.478901"
       r="15.261442"
       gradientUnits="userSpaceOnUse" />
  </defs>
  <sodipodi:namedview
     id="base"
     pagecolor="#ffffff"
     bordercolor="#666666"
     borderopacity="1.0"
     inkscape:pageopacity="0.0"
     inkscape:pageshadow="2"
     inkscape:zoom="11.197802"
     inkscape:cx="16"
     inkscape:cy="16"
     inkscape:current-layer="layer1"
     showgrid="true"
     inkscape:grid-bbox="true"
     inkscape:document-units="px"
     inkscape:window-width="1600"
     inkscape:window-height="1144"
     inkscape:window-x="-4"
     inkscape:window-y="-4"
     inkscape:window-maximized="1" />
  <metadata
     id="metadata2990">
    <rdf:RDF>
      <cc:Work
         rdf:about="">
        <dc:format>image/svg+xml</dc:format>
        <dc:type
           rdf:resource="http://purl.org/dc/dcmitype/StillImage" />
        <dc:title />
      </cc:Work>
    </rdf:RDF>
  </metadata>
  <g
     id="layer1"
     inkscape:label="Layer 1"
     inkscape:groupmode="layer">
    <path
       sodipodi:type="star"
       style="color:#000000;fill:url(#radialGradient3768);fill-opacity:1;fill-rule:nonzero;stroke:none;stroke-width:1;marker:none;visibility:visible;display:inline;overflow:visible;enable-background:accumulate"
       id="path2992"
       sodipodi:sides="32"
       sodipodi:cx="15.806673"
       sodipodi:cy="15.478901"
       sodipodi:r1="15.265559"
       sodipodi:r2="8.0763502"
       sodipodi:arg1="-1.54757"
       sodipodi:arg2="-1.4493952"
       inkscape:flatsided="false"
       inkscape:rounded="0"
       inkscape:randomized="0"
       d="m 16.161204,0.21745912 0.62354,7.24453408 2.347007,-6.88212419 -0.801779,7.22697909 3.644546,-6.2920078 -2.196287,6.9316954 4.802027,-5.460093 -3.506393,6.3700304 5.774968,-4.4183499 -4.681749,5.5635688 6.525981,-3.2068121 -5.677189,4.5433021 7.026204,-1.8720381 -6.454458,3.3484391 7.256414,-0.465323 -6.983686,2.024898 7.207765,0.959274 -7.244534,0.62354 6.882124,2.347007 -7.226979,-0.801779 6.292008,3.644546 -6.931696,-2.196287 5.460093,4.802026 -6.37003,-3.506392 4.41835,5.774968 -5.563569,-4.681749 3.206812,6.525981 -4.543302,-5.67719 1.872038,7.026205 -3.348439,-6.454458 0.465323,7.256414 -2.024898,-6.983686 -0.959274,7.207765 -0.62354,-7.244534 -2.347007,6.882124 0.801779,-7.226979 -3.6445458,6.292007 2.1962868,-6.931695 -4.8020265,5.460093 3.5063925,-6.37003 -5.7749682,4.41835 L 9.4462623,20.45611 2.9202811,23.662922 8.5974706,19.11962 1.5712662,20.991658 8.0257244,17.643219 0.76931002,18.108542 7.7529957,16.083644 0.54523126,15.12437 7.7897653,14.50083 0.90764115,12.153823 8.1346202,12.955602 1.8426125,9.3110561 8.7743078,11.507343 3.3142148,6.7053164 9.6842452,10.211709 5.2658953,4.4367407 10.829464,9.1184902 7.622652,2.592509 12.165954,8.2696984 10.293916,1.2434941 13.642355,7.6979523 13.177032,0.44153788 15.20193,7.4252236 z"
       inkscape:transform-center-y="3.9004009"
       transform="translate(0.19332695,0.52109909)" />
    <path
       sodipodi:type="arc"
       style="color:#000000;fill:#ff0000;fill-opacity:1;fill-rule:nonzero;stroke:#000000;stroke-width:1;stroke-linecap:round;stroke-linejoin:round;stroke-miterlimit:4;stroke-opacity:1;stroke-dasharray:none;stroke-dashoffset:0;marker:none;visibility:visible;display:inline;overflow:visible;enable-background:accumulate"
       id="path2990"
       sodipodi:cx="15.71737"
       sodipodi:cy="15.74681"
       sodipodi:rx="2.0539744"
       sodipodi:ry="2.0539744"
       d="m 17.771344,15.74681 a 2.0539744,2.0539744 0 1 1 -4.107948,0 2.0539744,2.0539744 0 1 1 4.107948,0 z"
       transform="translate(0.28262997,0.25319004)" />
    <path
       style="fill:#ffffff;fill-opacity:1;stroke:#000000;stroke-width:0.64254301999999996px;stroke-linecap:butt;stroke-linejoin:miter;stroke-opacity:1;filter:url(#filter4300)"
       d="m 16.374055,16.543032 4.799034,9.569673 c 0.244741,-0.625868 0.524398,-1.159863 0.837702,-1.661204 l 3.648971,3.64897 2.271732,-2.271732 -3.663169,-3.663169 c 0.500918,-0.313918 1.048921,-0.58953 1.675403,-0.823504 l -9.569673,-4.799034 z"
       id="path2995"
       inkscape:connector-curvature="0" />
  </g>
</svg>
