<?xml version="1.0" encoding="UTF-8" standalone="no"?>
<!-- Created with Inkscape (http://www.inkscape.org/) -->

<svg
   xmlns:dc="http://purl.org/dc/elements/1.1/"
   xmlns:cc="http://creativecommons.org/ns#"
   xmlns:rdf="http://www.w3.org/1999/02/22-rdf-syntax-ns#"
   xmlns:svg="http://www.w3.org/2000/svg"
   xmlns="http://www.w3.org/2000/svg"
   xmlns:sodipodi="http://sodipodi.sourceforge.net/DTD/sodipodi-0.dtd"
   xmlns:inkscape="http://www.inkscape.org/namespaces/inkscape"
   width="32px"
   height="32px"
   id="svg2985"
   version="1.1"
   inkscape:version="0.48.0 r9654"
   sodipodi:docname="Polygon.svg"
   inkscape:export-filename="C:\Projects\TransMapper\trunk\Source Code\LocationInfoWpfControls\Images\Polygon.png"
   inkscape:export-xdpi="90"
   inkscape:export-ydpi="90">
  <defs
     id="defs2987">
    <filter
       id="filter4300"
       inkscape:label="Drop shadow"
       width="1.5"
       height="1.5"
       x="-.25"
       y="-.25">
      <feGaussianBlur
         id="feGaussianBlur4302"
         in="SourceAlpha"
         stdDeviation="0.8"
         result="blur" />
      <feColorMatrix
         id="feColorMatrix4304"
         result="bluralpha"
         type="matrix"
         values="1 0 0 0 0 0 1 0 0 0 0 0 1 0 0 0 0 0 0.5 0 " />
      <feOffset
         id="feOffset4306"
         in="bluralpha"
         dx="1.9"
         dy="0.9"
         result="offsetBlur" />
      <feMerge
         id="feMerge4308">
        <feMergeNode
           id="feMergeNode4310"
           in="offsetBlur" />
        <feMergeNode
           id="feMergeNode4312"
           in="SourceGraphic" />
      </feMerge>
    </filter>
  </defs>
  <sodipodi:namedview
     id="base"
     pagecolor="#ffffff"
     bordercolor="#666666"
     borderopacity="1.0"
     inkscape:pageopacity="0.0"
     inkscape:pageshadow="2"
     inkscape:zoom="11.197802"
     inkscape:cx="16"
     inkscape:cy="16"
     inkscape:current-layer="layer1"
     showgrid="true"
     inkscape:grid-bbox="true"
     inkscape:document-units="px"
     inkscape:window-width="1600"
     inkscape:window-height="1144"
     inkscape:window-x="-4"
     inkscape:window-y="-4"
     inkscape:window-maximized="1" />
  <metadata
     id="metadata2990">
    <rdf:RDF>
      <cc:Work
         rdf:about="">
        <dc:format>image/svg+xml</dc:format>
        <dc:type
           rdf:resource="http://purl.org/dc/dcmitype/StillImage" />
        <dc:title></dc:title>
      </cc:Work>
    </rdf:RDF>
  </metadata>
  <g
     id="layer1"
     inkscape:label="Layer 1"
     inkscape:groupmode="layer">
    <path
       style="fill:#000000;fill-opacity:0.37278107;stroke:#ff0000;stroke-width:1px;stroke-linecap:butt;stroke-linejoin:miter;stroke-opacity:1"
       d="M 17.03125 3.96875 C 15.987678 4.2600393 14.916204 4.4894834 13.950117 4.9987484 C 13.037913 5.4310023 12.121615 5.8789266 11.144019 6.1334395 C 10.211498 6.4630641 9.4421985 7.1038033 8.8082359 7.8480141 C 8.1524657 8.5315602 7.5562949 9.2770868 7.0194946 10.056547 C 6.5302488 10.894971 6.0706563 11.819784 6.0152297 12.802763 C 5.9164031 15.056009 5.8175766 17.309254 5.71875 19.5625 C 5.7613719 20.518177 6.1980824 21.439433 6.8679007 22.117013 C 7.523139 22.745772 8.2948107 23.269798 9.1734259 23.526559 C 10.097989 23.71551 11.077408 23.722559 12.01926 23.643939 C 12.9005 23.586255 13.738129 23.133015 14.28125 22.4375 C 14.957878 21.641192 15.298294 20.627212 15.862233 19.761951 C 16.465954 18.813119 17.44878 18.226596 18.40625 17.6875 C 19.55666 17.146617 20.815449 16.924888 22.02811 16.570879 C 23.015492 16.28643 24.072043 16.158703 24.96875 15.625 C 25.716861 15.242268 26.260124 14.493222 26.419337 13.666401 C 26.651599 12.696301 26.916566 11.685859 26.71875 10.6875 C 26.439203 9.5994607 25.994781 8.529765 25.330927 7.6209905 C 24.708255 6.8050978 23.98004 6.0519781 23.119705 5.4869183 C 22.333895 4.9581425 21.465075 4.5673171 20.531838 4.3928165 C 19.57881 4.1288317 18.587943 4.0669597 17.611183 3.939437 C 17.416804 3.9262644 17.223793 3.9428561 17.03125 3.96875 z "
       id="path2992"
       inkscape:connector-curvature="0" />
    <path
       style="fill:#ffffff;fill-opacity:1;stroke:#000000;stroke-width:0.64254302px;stroke-linecap:butt;stroke-linejoin:miter;stroke-opacity:1;filter:url(#filter4300)"
       d="m 7.3544278,19.222129 4.7990342,9.569673 c 0.244741,-0.625868 0.524398,-1.159863 0.837702,-1.661204 l 3.648971,3.64897 2.271732,-2.271732 -3.663169,-3.663169 c 0.500918,-0.313918 1.048921,-0.58953 1.675403,-0.823504 L 7.3544278,19.222129 z"
       id="path2995"
       inkscape:connector-curvature="0" />
  </g>
</svg>
